<svg width="201" height="201" fill="none" xmlns="http://www.w3.org/2000/svg"><path d="M105.198 1.607l.824 17.282 3.955.649 6.073-15.59.545.089.771 16.713 3.956.65 6.304-16.112-1.847-.303-6.073 15.59-.568-.093-.725-16.706-4.002-.657-6.049 15.595-.569-.094-.748-16.71-1.847-.303zm41.895 12.066l-3.338 6.97-9.012-4.296 3.338-6.97-1.777-.847-7.308 15.26 1.777.848 3.244-6.776 9.013 4.296-3.245 6.775 1.755.837 7.308-15.26-1.755-.837zm3.865 11.522c-3.111 3.843-3.202 8.609.685 11.741 3.849 3.102 8.5 2.011 11.611-1.832 3.096-3.824 3.187-8.59-.663-11.692-3.887-3.132-8.538-2.04-11.633 1.784zm1.532 1.235c2.537-3.133 5.923-4.227 9.044-1.712 3.102 2.5 2.725 6.018.188 9.152-2.552 3.152-5.92 4.26-9.022 1.76-3.121-2.514-2.762-6.047-.21-9.2zm20.893 35.965l1.019 1.655 11.575-13.476-2.113-3.434-17.297 4.175 1.031 1.677 6.756-1.66 3.559 5.784-4.53 5.279zm2.693-11.471l8.223-2.024.289.47-5.519 6.42-2.993-4.866zm.428 16.781l.57 1.883 14.316-4.315 1.265-.707.16.528-14.266 9.364 1.147 3.79 17.077-.083.167.55-1.453.088-14.316 4.315.57 1.883 16.2-4.883-1.14-3.767-17.07.107-.16-.529 14.281-9.317-1.148-3.79-16.2 4.883zm21.254 41.411l1.678.068.39-9.52-1.678-.068-.155 3.788-13.549-.552.155-3.789-1.679-.068-.39 9.52 1.679.068.154-3.765 13.549.553-.154 3.765zm-13.377 14.249l-.534 1.517c1.359.476 1.385 1.197 1.17 1.808-.581 1.653-2.919 2.513-3.684 4.686-.446 1.268-.079 2.973 2.209 3.774l.533-1.517c-1.359-.476-1.408-1.205-1.192-1.816.573-1.63 2.919-2.512 3.684-4.686.438-1.245.102-2.965-2.186-3.766zm-.728 32.526l-15.194-8.298-2.622 3.031 10.144 13.293-.361.417-14.681-8.046-2.622 3.031 10.468 13.762 1.225-1.416-10.144-13.293.377-.435 14.649 8.083 2.654-3.068-10.16-13.275.377-.436 14.665 8.065 1.225-1.415zm-31.984 29.329l-4.276-6.437 8.328-5.507 4.276 6.438 1.642-1.085-9.361-14.095-1.642 1.085 4.156 6.258-8.328 5.506-4.157-6.257-1.621 1.072 9.361 14.094 1.622-1.072zm-11.978-2.719c-1.687-4.647-5.727-7.194-10.421-5.497-4.65 1.68-6.118 6.217-4.431 10.864 1.679 4.625 5.718 7.172 10.368 5.491 4.695-1.696 6.163-6.233 4.484-10.858zm-1.851.669c1.376 3.79.563 7.248-3.206 8.61-3.747 1.354-6.568-.791-7.944-4.581-1.384-3.812-.594-7.262 3.153-8.616 3.769-1.362 6.613.774 7.997 4.587zm-41.608-.836l-1.944.032 5.723 16.829 4.031-.065 5.197-17.006-1.968.031-2.004 6.658-6.791.11-2.244-6.589zm8.51 8.168l-2.436 8.104-.552.009-2.723-8.021 5.711-.092zm-14.732-8.357l-1.906-.491-3.74 14.477-.051 1.449-.535-.138-.601-17.055-3.836-.986-8.789 14.641-.558-.144.68-1.287 3.74-14.477-1.906-.49-4.232 16.382 3.812.98 8.766-14.646.534.137.555 17.044 3.835.986 4.232-16.382zm-46.61-3.443l-.941 1.392 7.904 5.32.941-1.391-3.146-2.118 7.596-11.232 3.146 2.117.941-1.392-7.904-5.32-.94 1.391 3.125 2.105-7.596 11.232-3.126-2.104zm-5.1-18.79l-1.02-1.243c-1.116.91-1.746.558-2.157.057-1.111-1.355-.628-3.794-2.09-5.576-.852-1.039-2.502-1.613-4.38-.08l1.02 1.244c1.116-.911 1.765-.573 2.176-.072 1.096 1.336.628 3.793 2.089 5.575.837 1.02 2.484 1.628 4.361.095zm-27.493-17.418l14.962-8.682-1.246-3.81-16.638 1.782-.171-.524 14.482-8.375-1.246-3.809-17.208 1.816.582 1.779 16.638-1.782.18.547-14.498 8.329 1.26 3.856 16.632-1.806.179.548-14.49 8.352.582 1.779zM2.233 99.858l7.723-.282.364 9.978-7.722.281.072 1.967 16.908-.616-.072-1.967-7.507.274-.365-9.978 7.508-.273-.072-1.943-16.908.616.07 1.943zm8.659-8.754c4.847.976 9.121-1.15 10.111-6.043.98-4.846-2.133-8.46-6.98-9.435-4.823-.971-9.097 1.155-10.078 6-.99 4.893 2.124 8.507 6.947 9.478zm.39-1.929c-3.952-.796-6.484-3.288-5.69-7.217.79-3.905 4.088-5.2 8.041-4.403 3.976.8 6.513 3.27 5.723 7.175-.795 3.928-4.097 5.246-8.074 4.445zm22.588-35.06l1.016-1.658-17.29-4.17-2.108 3.437 11.582 13.48 1.028-1.678-4.55-5.251 3.55-5.79 6.771 1.63zm-11.467 2.814l-5.54-6.39.288-.471 8.238 1.992-2.986 4.869zm14.681-7.942l1.413-1.37L28.058 36.91l-1.212-.796.396-.385 14.906 8.343 2.841-2.758-7.947-15.096.413-.4.747 1.247 10.439 10.706 1.412-1.371L38.24 24.286l-2.825 2.742 7.965 15.079-.396.384-14.87-8.376-2.843 2.758 11.813 12.114zm27.075-37.922l-.71-1.523-8.644 4.007.71 1.523 3.44-1.595 5.724 12.292-3.44 1.595.709 1.523 8.644-4.007-.709-1.523-3.418 1.585-5.725-12.293 3.419-1.584zm18.849 5.275l1.593-.22c-.198-1.426.431-1.779 1.073-1.868 1.735-.24 3.569 1.446 5.85 1.13 1.332-.183 2.68-1.29 2.348-3.691l-1.593.22c.198 1.426-.428 1.803-1.07 1.892-1.712.236-3.569-1.445-5.851-1.13-1.308.18-2.683 1.267-2.35 3.668z" fill="#B12B00"/></svg>