<svg xmlns="http://www.w3.org/2000/svg" width="199" height="199" fill="none"><path d="M101.827 18.241l5.517.748c4.067.551 6.757-.174 7.215-3.551.406-2.997-1.474-4.317-4.036-4.713l.078-.57c1.752.116 3.505-.664 3.833-3.09.449-3.305-1.796-4.433-5.887-4.988l-4.447-.603-2.273 16.767zm3.246-9.296l.751-5.542 2.569.349c2.735.37 4.401.766 4.049 3.358-.322 2.378-2.065 2.554-4.8 2.183l-2.569-.348zm-1.07 7.896l.844-6.231 3.639.493c2.854.387 4.5 1.288 4.168 3.738-.358 2.64-2.159 2.88-5.013 2.493l-3.638-.493zm29.677 9.486l1.788.763 1.634-17.7-3.709-1.584-11.676 13.413 1.81.773 4.543-5.263 6.247 2.667-.637 6.93zM129.238 15.4l5.528-6.408.508.216-.783 8.434-5.253-2.242zm35.52 11.496l-2.193-1.793-11.32.045 4.557-5.574-1.523-1.246-10.71 13.099 1.523 1.246 4.558-5.574 2.205 11.103 2.193 1.793-2.627-13.091 13.337-.008zm-4.489 19.294l6.196 8.461 1.355-.992-5.033-6.874 4.802-3.517 4.325 5.907 1.355-.993-4.324-5.906 4.783-3.502 5.033 6.874 1.356-.992-6.196-8.462-13.652 9.995zm10.871 15.624l.726 1.829 6.313-2.506 3.135 7.897-6.313 2.505.726 1.83 5.911-2.347c.826-.327 1.041-.826.687-1.718l-.744-1.874.535-.213c.963 1.58 2.499 2.391 4.863 1.453 3.525-1.4 3.447-4.131 1.96-7.879l-2.072-5.22-15.727 6.243zm8.601-1.297l6.29-2.497 1.346 3.39c1.063 2.678 1.464 4.404-1.436 5.555-2.878 1.142-3.792-.38-4.854-3.057l-1.346-3.39zm16.686 29.151l-8.794-3.631-1.357.175-.07-.547 1.356-.176 7.583-5.746-.271-2.095-9.733 7.452-6.26.809.249 1.928 6.26-.809 11.307 4.735-.27-2.095zm-13.166 26.213l-.45 1.543c1.382.403 1.447 1.123 1.266 1.745-.491 1.682-2.778 2.665-3.423 4.876-.376 1.291.083 2.974 2.41 3.653l.45-1.543c-1.382-.404-1.471-1.129-1.289-1.752.484-1.658 2.777-2.664 3.422-4.876.37-1.268-.059-2.968-2.386-3.646zM166.559 145L163 149.282c-2.623 3.156-3.434 5.821-.813 7.999 2.326 1.933 4.442 1.04 6.135-.923l.443.368c-1.027 1.424-1.295 3.324.587 4.888 2.566 2.133 4.712.827 7.351-2.348l2.869-3.451L166.559 145zm6.162 7.68l4.301 3.575-1.657 1.993c-1.764 2.122-2.983 3.326-4.995 1.653-1.845-1.534-1.07-3.105.694-5.227l1.657-1.994zm-6.128-5.093l4.836 4.019-2.347 2.824c-1.841 2.215-3.478 3.133-5.379 1.553-2.048-1.703-1.298-3.357.543-5.572l2.347-2.824zm-23.784 20.137l-1.592 1.115 14.168 10.735 3.302-2.312-5.222-16.999-1.612 1.129 2.069 6.637-5.564 3.896-5.549-4.201zm11.625 1.998l2.521 8.079-.452.316-6.748-5.119 4.679-3.276zm-28.553 24.1l2.681-.913 5.95-9.631 2.32 6.816 1.863-.634-5.453-16.018-1.863.635 2.321 6.815-10.591-4-2.68.913 12.499 4.694-7.047 11.323zm-14.002-14.025l-10.46.763.122 1.675 8.497-.619.433 5.936-7.301.532.123 1.676 7.3-.532.431 5.912-8.497.619.122 1.676 10.46-.763-1.23-16.875zm-19.018.932l-1.937-.351-1.21 6.684-8.36-1.514 1.21-6.683-1.936-.351-1.133 6.259c-.158.874.151 1.32 1.096 1.491l1.984.359-.103.567c-1.85-.018-3.35.857-3.803 3.36-.676 3.731 1.685 5.11 5.652 5.828l5.526 1 3.014-16.649zm-3.446 7.986l-1.205 6.66-3.59-.65c-2.834-.513-4.51-1.085-3.955-4.155.552-3.047 2.327-3.018 5.16-2.505l3.59.65zm-33.648-1.271l7.753-5.514.573-1.242.501.231-.573 1.242.833 9.477 1.918.885-1.134-12.206 2.645-5.731-1.764-.815-2.646 5.731-10.023 7.057 1.917.885zM40.466 162.52l-1.071-1.2c-1.074.96-1.719.634-2.15.151-1.168-1.306-.791-3.767-2.326-5.485-.895-1.002-2.567-1.504-4.375.11l1.072 1.2c1.074-.96 1.736-.65 2.168-.167 1.15 1.289.79 3.767 2.325 5.485.88.984 2.55 1.52 4.357-.094zm-15.737-29.697l-1.75-5.286c-1.29-3.896-3.123-5.994-6.358-4.923-2.87.95-3.232 3.219-2.463 5.695l-.547.181c-.664-1.626-2.134-2.858-4.458-2.089-3.167 1.049-3.195 3.561-1.897 7.48l1.41 4.26 16.063-5.318zm-9.778 1.164l-5.308 1.758-.815-2.461c-.868-2.62-1.244-4.29 1.24-5.113 2.278-.754 3.201.735 4.069 3.355l.814 2.461zm7.564-2.504l-5.969 1.976-1.154-3.486c-.905-2.734-.818-4.608 1.529-5.385 2.529-.838 3.535.675 4.44 3.409l1.154 3.486zm-4.528-30.844l-.097-1.941-16.627 6.286.201 4.027 17.172 4.62-.098-1.965-6.721-1.779-.34-6.783 6.51-2.465zm-7.876 8.781l-8.182-2.162-.027-.552 7.924-2.991.285 5.705zM4.796 72.528l-.642 2.758 5.035 10.14-7.013-1.631-.446 1.917 16.48 3.832.446-1.917-7.013-1.63 8.992-6.879.641-2.758-10.59 8.133-5.89-11.965zM24.11 68.03l4.884-9.28-1.487-.783-3.968 7.54-5.267-2.773 3.41-6.477-1.487-.783-3.41 6.478-5.245-2.761 3.968-7.54-1.486-.782-4.886 9.28 14.973 7.882zm9.267-16.619l1.324-1.456-5.026-4.568 5.714-6.287 5.026 4.568 1.324-1.456-4.706-4.278c-.657-.597-1.2-.571-1.845.139l-1.357 1.492-.426-.388c.996-1.56 1.05-3.295-.833-5.006-2.806-2.55-5.226-1.28-7.938 1.704l-3.777 4.156 12.52 11.38zm-4.945-7.154l-5.009-4.553 2.454-2.7c1.937-2.13 3.311-3.25 5.62-1.15 2.29 2.082 1.325 3.572-.612 5.703l-2.453 2.7zm18.767-27.784l.629 9.493.757 1.14-.46.305-.757-1.14-8.506-4.261-1.76 1.168 10.987 5.438 3.492 5.258 1.62-1.076-3.492-5.258-.751-12.235-1.76 1.168zm29.371.113l1.585-.272c-.244-1.419.374-1.793 1.013-1.903 1.726-.296 3.612 1.328 5.883.938 1.325-.227 2.637-1.378 2.227-3.767l-1.585.272c.244 1.42-.37 1.817-1.008 1.927-1.704.292-3.613-1.328-5.884-.938-1.301.223-2.64 1.354-2.23 3.743z" fill="#B12B00"/></svg>