<svg width="201" height="201" fill="none" xmlns="http://www.w3.org/2000/svg"><path d="M116.975 16.319c.39-3.507-3.326-4.837-6.504-6.23-2.672-1.165-4.079-1.974-3.883-3.739.207-1.86 1.964-2.245 4.278-1.988 2.576.287 4.561 1.763 4.243 4.626l1.956.217c.305-2.743-1.052-5.96-6.014-6.512-4.15-.462-6.138.911-6.424 3.487-.331 2.982 1.977 4.156 5.182 5.527 2.584 1.084 5.483 1.937 5.2 4.49-.225 2.027-1.948 2.536-4.81 2.218-3.531-.393-5.556-1.511-5.113-5.495l-1.956-.217c-.437 3.936 1.015 6.73 6.883 7.381 4.962.552 6.684-1.26 6.962-3.765zm15.014 8.817l1.841.623.262-17.775-3.819-1.293-10.605 14.272 1.864.632 4.123-5.598 6.434 2.179-.1 6.96zm-5.272-10.553l5.016-6.815.523.177-.129 8.47-5.41-1.832zm25.83 2.124l-8.124 4.948-.66 1.199-.484-.267.661-1.198-.157-9.514-1.85-1.02.262 12.258-3.045 5.529 1.702.938 3.046-5.528 10.498-6.325-1.849-1.02zm24.542 21.298l-5.721 5.195-6.708-7.394 5.721-5.195-1.323-1.458-12.525 11.375 1.322 1.458 5.561-5.05 6.709 7.394-5.561 5.05 1.306 1.44 12.526-11.375-1.307-1.44zM168.71 54.85l5.329 9.034 1.446-.854-4.329-7.338 5.125-3.027 3.72 6.305 1.446-.854-3.719-6.305 5.104-3.014 4.33 7.338 1.446-.854-5.329-9.033-14.569 8.603zm7.403 14.208l3.378 8.372 1.574-.588-3.202-7.899 14.503-5.413-.688-1.844-14.727 5.497c-.855.319-1.188 1.007-.838 1.875zm4.416 13.622l1.854 8.834 1.653-.301-1.764-8.34 15.229-2.776-.352-1.936-15.465 2.82c-.898.163-1.346.782-1.155 1.698zm10.835 10.62c-4.943-.08-8.758 2.787-8.839 7.778-.08 4.944 3.64 7.933 8.583 8.013 4.919.08 8.734-2.787 8.815-7.73.081-4.991-3.639-7.98-8.559-8.06zm-.032 1.969c4.032.065 6.976 2.057 6.911 6.065-.065 3.983-3.072 5.855-7.103 5.789-4.055-.066-7-2.034-6.935-6.017.065-4.008 3.072-5.903 7.127-5.837zm-7.061 29.123l-.544 1.513c1.356.487 1.377 1.209 1.158 1.819-.592 1.649-2.934 2.49-3.713 4.659-.454 1.264-.099 2.973 2.182 3.793l.544-1.513c-1.355-.487-1.399-1.217-1.18-1.827.584-1.626 2.934-2.49 3.713-4.659.446-1.242.121-2.966-2.16-3.785zm-17.9 32.974c2.839 2.095 5.851-.455 8.647-2.508 2.347-1.728 3.752-2.541 5.181-1.486 1.506 1.111.958 2.825-.423 4.699-1.538 2.086-3.81 3.064-6.127 1.354l-1.168 1.585c2.221 1.638 5.685 2.076 8.647-1.942 2.478-3.361 2.286-5.77.2-7.309-2.414-1.781-4.586-.371-7.377 1.715-2.232 1.694-4.423 3.776-6.489 2.251-1.642-1.211-1.219-2.957.49-5.276 2.107-2.859 4.089-4.051 7.315-1.671l1.167-1.584c-3.186-2.351-6.331-2.494-9.834 2.258-2.962 4.018-2.256 6.418-.229 7.914zm-15.255 8.479l-1.46 1.285 15.264 9.104 3.027-2.664-7.068-16.321-1.477 1.301 2.789 6.369-5.097 4.488-5.978-3.562zm11.771.7l3.398 7.752-.414.365-7.272-4.342 4.288-3.775zm-14.733 21.323l-.227-9.513-.708-1.171.473-.285.707 1.17 8.317 4.617 1.807-1.093-10.745-5.897-3.266-5.401-1.663 1.006 3.266 5.402.232 12.259 1.807-1.094zm-30.745 10.659l-1.618-7.557 9.762-2.093 1.619 7.557 1.924-.413-3.544-16.545-1.924.413 1.573 7.345-9.762 2.093-1.573-7.345-1.901.407 3.544 16.545 1.9-.407zm-10.334-15.809l-10.486.171.027 1.679 8.519-.138.096 5.951-7.319.119.028 1.68 7.319-.119.096 5.927-8.519.139.027 1.679 10.487-.17-.275-16.918zm-16.066-.673l-8.938-1.265-.28 1.657 8.442 1.18-2.573 15.265 1.94.328 2.613-15.502c.152-.899-.277-1.531-1.204-1.663zm-13.999-2.984l-8.576-2.815-.566 1.581 8.102 2.646-5.213 14.576 1.853.663 5.294-14.801c.307-.859-.004-1.557-.893-1.85zm-14.518 4.037c2.512-4.258 1.905-8.992-2.393-11.531-4.257-2.513-8.693-.757-11.205 3.501-2.5 4.238-1.893 8.972 2.364 11.486 4.298 2.538 8.734.782 11.234-3.456zm-1.695-1.001c-2.048 3.473-5.234 5.048-8.686 3.01-3.43-2.026-3.571-5.565-1.523-9.038 2.061-3.493 5.227-5.08 8.657-3.055 3.451 2.038 3.613 5.59 1.552 9.083zm-21.695-20.674l-1.045-1.223c-1.095.937-1.732.597-2.153.105-1.138-1.332-.709-3.784-2.206-5.536-.873-1.021-2.533-1.559-4.375.017l1.045 1.222c1.094-.936 1.75-.613 2.17-.12 1.123 1.313.71 3.784 2.207 5.535.857 1.004 2.515 1.576 4.357 0zm-20.415-34.545c-3.275 1.312-2.694 5.217-2.42 8.675.232 2.906.184 4.529-1.465 5.189-1.737.697-2.905-.671-3.77-2.832-.964-2.407-.6-4.854 2.073-5.925l-.731-1.827c-2.562 1.027-4.758 3.742-2.902 8.377 1.552 3.877 3.7 4.981 6.106 4.016 2.785-1.116 2.73-3.705 2.426-7.177-.264-2.79-.88-5.749 1.504-6.705 1.893-.759 3.155.52 4.226 3.193 1.32 3.298 1.29 5.611-2.43 7.102l.73 1.827c3.676-1.473 5.453-4.073 3.259-9.554-1.856-4.634-4.267-5.297-6.606-4.359zm.81-17.493l-.31-1.919-15.834 8.079.643 3.981 17.576 2.701-.314-1.943-6.876-1.028-1.083-6.705 6.198-3.166zm-6.862 9.595l-8.37-1.248-.088-.545 7.548-3.846.91 5.639zM2.425 95.196l8.178 4.862 1.368.022-.01.552-1.367-.023-8.332 4.594-.034 2.112 10.706-5.971 6.311.102.032-1.944-6.311-.102-10.507-6.316-.034 2.112zm7.253-31.711l7.267 2.63-3.395 9.39-7.267-2.63-.669 1.85 15.91 5.758.67-1.851-7.064-2.556 3.394-9.39 7.064 2.557.661-1.828-15.91-5.758-.661 1.828zm18.735-.475l5.472-8.947-1.433-.877-4.445 7.269-5.076-3.108 3.819-6.245-1.433-.877-3.82 6.245-5.055-3.095 4.445-7.268-1.433-.877-5.472 8.947 14.431 8.834zm9.067-13.19l5.78-6.934-1.26-1.11-5.447 6.556-11.619-10.23-1.3 1.478 11.799 10.388c.684.603 1.447.571 2.048-.148zm9.99-10.289l6.915-5.805-1.045-1.315-6.52 5.491-9.63-12.12-1.54 1.225 9.78 12.308c.567.714 1.323.818 2.04.216zm4.127-14.517c2.3 4.376 6.643 6.349 11.061 4.025 4.376-2.301 5.215-7 2.915-11.376-2.288-4.356-6.632-6.328-11.008-4.027-4.418 2.324-5.257 7.022-2.968 11.378zm1.741-.917c-1.875-3.569-1.539-7.108 2.009-8.974 3.526-1.854 6.61-.114 8.485 3.456 1.886 3.59 1.571 7.118-1.955 8.973-3.547 1.866-6.652.136-8.539-3.455zm29.101-7.57l1.59-.231c-.206-1.425.421-1.783 1.062-1.876 1.734-.252 3.577 1.42 5.858 1.09 1.33-.194 2.671-1.31 2.323-3.71l-1.591.232c.207 1.425-.417 1.807-1.058 1.9-1.71.248-3.578-1.42-5.858-1.09-1.306.19-2.675 1.286-2.326 3.685z" fill="#B12B00"/></svg>