<svg xmlns="http://www.w3.org/2000/svg" width="199" height="199" fill="none"><path d="M101.697 18.363l1.957.208.718-6.754 7.998.368.181-1.695-7.998-.368.713-6.706 9.069.965.177-1.671-11.026-1.172-1.789 16.825zm30.36-9.307l.506-1.602-9.086-2.869-.505 1.602 3.616 1.142-4.084 12.93-3.616-1.141-.506 1.602 9.086 2.869.506-1.602-3.593-1.135 4.083-12.93 3.593 1.134zm20.965 8.429l-11.875-6.84-.838 1.457 5.116 2.946-7.606 13.207 1.684.97 7.606-13.206 5.075 2.922.838-1.456zm-3.54 17.908l1.411 1.371 10.419-10.725.762-1.233.396.385-5.362 17.61 2.84 2.76 11.79-12.137-1.395-1.354-10.418 10.724-.763 1.233-.396-.384 5.346-17.627-2.841-2.76-11.789 12.137zm14.864 15.598l5.672 8.823 1.413-.909-4.607-7.167 5.006-3.218 3.959 6.157 1.413-.908-3.959-6.158 4.987-3.205 4.607 7.166 1.413-.908-5.671-8.822-14.233 9.15zM181.39 75.91c3.317-1.203 2.865-5.124 2.706-8.589-.136-2.912-.035-4.532 1.635-5.137 1.76-.638 2.882.768 3.676 2.956.883 2.437.438 4.87-2.269 5.852l.671 1.85c2.594-.94 4.879-3.582 3.177-8.275-1.423-3.925-3.534-5.1-5.971-4.217-2.82 1.023-2.851 3.613-2.662 7.092.172 2.797.69 5.775-1.724 6.65-1.918.696-3.137-.624-4.119-3.331-1.21-3.34-1.104-5.65 2.664-7.016l-.67-1.85c-3.723 1.35-5.585 3.888-3.573 9.438 1.702 4.694 4.09 5.436 6.459 4.577zm3.229 20.615c3.51-.358 4.028-4.27 4.719-7.67.577-2.857 1.071-4.403 2.838-4.583 1.862-.19 2.608 1.447 2.844 3.763.263 2.579-.762 4.83-3.628 5.122l.2 1.958c2.746-.28 5.605-2.284 5.099-7.25-.423-4.155-2.184-5.809-4.763-5.546-2.984.304-3.646 2.808-4.31 6.23-.516 2.753-.739 5.768-3.294 6.028-2.029.207-2.89-1.37-3.182-4.235-.36-3.534.307-5.749 4.294-6.155l-.199-1.958c-3.94.401-6.365 2.41-5.766 8.283.506 4.967 2.641 6.269 5.148 6.013zm-.977 17.878l-.407 1.556c1.393.364 1.479 1.081 1.315 1.708-.443 1.695-2.701 2.742-3.284 4.971-.34 1.3.166 2.97 2.511 3.584l.407-1.556c-1.393-.364-1.502-1.087-1.338-1.714.437-1.672 2.701-2.742 3.284-4.971.334-1.277-.143-2.965-2.488-3.578zm-13.954 25.366l-1.112 1.624 5.603 3.838-4.12 6.865 1.406.963 4.12-6.865 5.564 3.811-5.154 7.524 1.386.95 6.266-9.148-13.959-9.562zm-6.158 31.219l1.17 1.205 6.837-6.636-1.17-1.206-2.721 2.641-9.445-9.729 2.721-2.641-1.171-1.206-6.836 6.637 1.17 1.205 2.704-2.624 9.445 9.729-2.704 2.625zm-17.326 14.388l11.631-7.248-.889-1.425-5.011 3.122-8.06-12.934-1.65 1.028 8.061 12.934-4.97 3.097.888 1.426zm-14.179-11.643l-1.876.592 4.502 14.258.724 1.257-.526.166-12.962-13.072-3.777 1.193 5.096 16.134 1.853-.585-4.502-14.258-.724-1.256.526-.167 12.985 13.065 3.776-1.193-5.095-16.134zm-20.799 5.832l-10.461.749.12 1.676 8.498-.609.426 5.937-7.301.523.12 1.676 7.301-.524.424 5.913-8.498.609.12 1.676 10.461-.75-1.21-16.876zm-29.907 3.198c-.504 3.492 3.166 4.943 6.297 6.437 2.632 1.253 4.012 2.107 3.759 3.865-.268 1.853-2.037 2.179-4.34 1.847-2.566-.37-4.502-1.911-4.09-4.761l-1.949-.281c-.394 2.732.858 5.992 5.798 6.705 4.134.596 6.165-.711 6.535-3.277.429-2.969-1.84-4.218-4.998-5.692-2.547-1.168-5.418-2.115-5.05-4.657.29-2.019 2.029-2.471 4.88-2.06 3.515.507 5.502 1.691 4.93 5.658l1.948.281c.565-3.919-.795-6.759-6.639-7.602-4.94-.713-6.722 1.043-7.081 3.537zm-19.686-7.031c-1.347 3.261 1.854 5.57 4.52 7.788 2.244 1.861 3.372 3.028 2.694 4.67-.715 1.73-2.51 1.612-4.661.723-2.396-.99-3.894-2.959-2.794-5.62l-1.819-.752c-1.054 2.551-.642 6.019 3.971 7.925 3.86 1.594 6.15.826 7.14-1.569 1.146-2.773-.747-4.542-3.445-6.747-2.182-1.758-4.731-3.382-3.75-5.756.778-1.885 2.574-1.896 5.236-.797 3.283 1.356 4.918 2.992 3.388 6.697l1.82.751c1.51-3.66.89-6.747-4.567-9-4.614-1.906-6.771-.642-7.733 1.687zm-15.335-9.213l-1.177-1.096c-.98 1.055-1.653.79-2.127.349-1.283-1.193-1.135-3.678-2.822-5.247-.984-.916-2.695-1.261-4.346.514l1.178 1.095c.98-1.055 1.669-.808 2.143-.366 1.265 1.177 1.135 3.678 2.822 5.247.966.899 2.678 1.278 4.33-.496zm-15.735-24.262l-.908-1.746-6.026 3.133-4.112-6.869-1.512.786 4.112 6.869-5.983 3.111-4.207-8.092-1.49.775 5.114 9.838 15.012-7.805zM6.025 121.933l-1.618.455 2.58 9.172 1.617-.454-1.026-3.651 13.053-3.671 1.027 3.65 1.617-.455-2.58-9.172-1.617.455 1.02 3.627-13.053 3.672-1.02-3.628zm-4.54-21.991l.86 13.677 1.677-.106-.37-5.892 15.21-.957-.123-1.94-15.21.957-.367-5.845-1.677.106zm16.866-6.932l.36-1.934-14.699-2.738-1.45.048.102-.543 17.634-5.285.725-3.893-16.634-3.098-.356 1.911 14.699 2.738 1.45-.048-.102.543L2.442 86.02l-.725 3.893 16.634 3.098zm4.829-21.092l4.309-9.562-1.532-.69-3.5 7.768-5.427-2.445 3.007-6.674-1.531-.69-3.007 6.674-5.405-2.435 3.5-7.768-1.532-.69-4.308 9.562 15.426 6.95zm11.31-27.883c-2.835-2.1-5.854.441-8.656 2.487-2.352 1.722-3.758 2.532-5.185 1.474-1.504-1.115-.952-2.827.435-4.697 1.543-2.082 3.818-3.055 6.131-1.34l1.172-1.58c-2.217-1.644-5.68-2.09-8.653 1.92-2.487 3.354-2.3 5.763-.219 7.307 2.41 1.786 4.587.382 7.383-1.698 2.237-1.687 4.434-3.764 6.497-2.234 1.638 1.215 1.211 2.96-.504 5.273-2.115 2.853-4.1 4.04-7.32 1.654l-1.172 1.58c3.181 2.359 6.326 2.51 9.842-2.234 2.973-4.01 2.273-6.41.248-7.912zm15.253-14.136c-2.255-2.714-5.79-.96-8.998.363-2.693 1.115-4.251 1.568-5.387.202-1.196-1.44-.254-2.972 1.537-4.46 1.993-1.657 4.433-2.062 6.274.153l1.514-1.258c-1.765-2.123-5.023-3.378-8.862-.187-3.212 2.67-3.602 5.054-1.945 7.047 1.917 2.307 4.364 1.459 7.574.102 2.574-1.11 5.2-2.605 6.841-.63 1.304 1.568.476 3.162-1.74 5.003-2.73 2.27-4.941 2.953-7.503-.13l-1.514 1.258c2.532 3.046 5.551 3.938 10.092.164 3.839-3.191 3.728-5.69 2.117-7.627zm15.589-9.044l1.522-.519c-.466-1.363.085-1.83.698-2.04 1.658-.565 3.778.74 5.958-.004 1.272-.435 2.386-1.778 1.602-4.072l-1.521.52c.465 1.362-.078 1.852-.691 2.06-1.636.56-3.778-.738-5.958.006-1.25.427-2.393 1.755-1.61 4.05z" fill="#B12B00"/></svg>