<svg width="157" height="157" fill="none" xmlns="http://www.w3.org/2000/svg"><path d="M85.343 8.438c-.625 3.454 1.037 5.29 4.243 5.87 2.993.542 4.93-.553 5.333-2.785.346-1.913-.521-2.783-2.058-3.39l.074-.408c1.639.04 2.598-.609 2.873-2.132.346-1.913-.906-3.585-3.9-4.126-3.206-.58-5.228.59-5.731 3.372l1.452.262c.368-2.037 1.557-2.846 4.055-2.394 2.267.41 2.88 1.472 2.637 2.818-.244 1.346-1.082 1.835-2.588 1.562l-1.736-.313-.224 1.24 1.736.313c1.506.273 2.294 1.074 1.996 2.72-.304 1.684-1.428 2.432-3.695 2.022-2.497-.452-3.505-1.659-3.015-4.369l-1.452-.262zm21.325 11.06l1.345.563 1.13-13.284-2.789-1.167-8.685 10.122 1.361.57 3.379-3.972 4.7 1.967-.441 5.201zm-3.39-8.17l4.111-4.836.382.16-.541 6.33-3.952-1.654zm16.118 16.166l-1.002-8.895 5.757-1.736 1.781 1.254.726-1.03-1.766-1.244c-.471-.332-.93-.368-1.454-.187l-6.049 1.838-.383-.269 3.264-4.636-1.207-.85-7.305 10.376 1.206.85 3.296-4.68.324.228c.147.103.29.182.453.231l.902 7.724 1.457 1.026zm9.346 9.178l.986 1.073 6.58-11.595-2.046-2.226-12.121 5.564.998 1.087 4.73-2.195 3.447 3.75-2.574 4.542zm.335-8.84l5.757-2.674.28.305-3.138 5.524-2.899-3.155zm7.108 10.498c-3.043 1.749-3.376 4.203-1.753 7.028 1.516 2.637 3.601 3.411 5.567 2.281 1.686-.968 1.792-2.192 1.266-3.758l.359-.206c1.026 1.279 2.14 1.593 3.483.822 1.685-.97 2.156-3.004.64-5.642-1.624-2.824-3.823-3.616-6.273-2.208l.736 1.28c1.794-1.032 3.18-.644 4.444 1.556 1.148 1.998.731 3.15-.455 3.832-1.186.682-2.1.356-2.862-.97l-.879-1.53-1.092.628.879 1.53c.762 1.326.658 2.445-.794 3.279-1.482.852-2.778.476-3.926-1.522-1.265-2.2-.992-3.748 1.396-5.12l-.736-1.28zm5.256 23.43l.439 1.39 10.869-7.72-.911-2.883-13.337-.089.445 1.407 5.214.014 1.535 4.857-4.254 3.025zm4.045-7.866l6.347.013.125.395-5.181 3.676-1.291-4.084zM156.058 72.7l-1.289-10.196-1.25.158.555 4.393-11.34 1.432.183 1.447 11.34-1.433.551 4.358 1.25-.158zm.14 8.005l.117-1.47-12.649-1.013-.308 3.84c-.241 3.014.431 5 3.553 5.25 3.14.251 4.137-1.601 4.378-4.616l.19-2.368 4.719.377zm-11.394-.911l5.419.433-.19 2.369c-.178 2.225-.69 3.43-3.004 3.245-2.297-.184-2.593-1.454-2.415-3.679l.19-2.368zm1.644 20.938c-3.393-1.495-6.872-.608-8.374 2.801-1.307 2.965-.384 5.693 2.346 7.309l.595-1.351c-2.107-1.243-2.79-3.177-1.788-5.45 1.19-2.701 3.809-3.199 6.626-1.958 2.8 1.234 4.2 3.503 3.01 6.204-1.002 2.273-2.872 3.082-5.212 2.365l-.595 1.351c3.018.917 5.653-.243 6.96-3.208 1.502-3.409-.191-6.575-3.568-8.063zm-17.861 18.851l-.871 1.17 12.62 4.299 1.805-2.426-7.729-10.869-.882 1.184 3.04 4.237-3.042 4.086-4.941-1.681zm8.747-1.321l3.701 5.157-.247.332-6.012-2.052 2.558-3.437zm-7.639 23.823l.924-.774c-.844-1.008-.892-1.766-.009-2.506.883-.739 1.635-.571 2.479.436l.924-.774c-1.179-1.408-2.802-1.691-4.154-.558-1.338 1.121-1.343 2.769-.164 4.176zM116.6 130.913l8.15 9.727 2.276-1.908-3.027-13.479.317-.266.503.965 7.202 8.595 1.117-.936-8.15-9.727-2.276 1.907 3.041 13.468-.317.266-.503-.965-7.202-8.595-1.131.948zm-6.825 18.405l9.157-4.668-.572-1.123-3.945 2.011-5.191-10.183-1.299.662 5.191 10.184-3.913 1.994.572 1.123zm-16.365-4.345l-1.193.176c.157 1.068-.313 1.337-.794 1.408-1.3.191-2.685-1.061-4.395-.81-.997.147-2.002.986-1.737 2.784l1.193-.175c-.157-1.068.31-1.355.791-1.426 1.282-.189 2.685 1.061 4.394.81.98-.144 2.005-.968 1.74-2.767zm-21.79 2.829c.626-3.454-1.036-5.291-4.242-5.871-2.993-.542-4.929.552-5.333 2.784-.346 1.913.52 2.783 2.057 3.391l-.074.407c-1.639-.041-2.598.609-2.873 2.132-.347 1.913.906 3.585 3.899 4.127 3.206.58 5.229-.59 5.732-3.371l-1.452-.263c-.37 2.037-1.558 2.846-4.056 2.394-2.267-.41-2.88-1.473-2.636-2.819.244-1.346 1.082-1.834 2.588-1.562l1.736.314.224-1.239-1.736-.315c-1.505-.272-2.293-1.073-1.995-2.72.305-1.683 1.428-2.431 3.695-2.021 2.497.452 3.505 1.659 3.014 4.369l1.452.263zm-21.311-11.06l-1.345-.563-1.13 13.284 2.79 1.168 8.684-10.122-1.361-.57-3.38 3.971-4.699-1.966.44-5.202zm3.39 8.171l-4.111 4.835-.382-.16.541-6.329 3.952 1.654zm-16.117-16.166l1.001 8.894-5.757 1.736-1.78-1.253-.726 1.03 1.766 1.243c.47.332.93.369 1.453.187l6.05-1.838.383.269-3.265 4.636 1.207.85 7.306-10.376-1.207-.85-3.295 4.681-.324-.228a1.543 1.543 0 00-.454-.232l-.901-7.723-1.457-1.026zm-9.358-9.184l-.987-1.074-6.58 11.595 2.047 2.227 12.12-5.565-.998-1.087-4.73 2.196-3.447-3.751 2.575-4.541zm-.336 8.839l-5.756 2.674-.28-.305 3.137-5.523 2.9 3.154zm-7.03-10.512c3.041-1.753 3.372-4.208 1.745-7.03-1.52-2.636-3.606-3.407-5.57-2.274-1.685.97-1.79 2.194-1.261 3.76l-.359.206c-1.027-1.277-2.143-1.59-3.484-.817-1.684.971-2.152 3.006-.633 5.642 1.627 2.823 3.827 3.611 6.276 2.2l-.737-1.279c-1.794 1.034-3.18.649-4.447-1.55-1.15-1.996-.735-3.15.45-3.833 1.185-.683 2.1-.359 2.864.967l.88 1.528 1.092-.629-.88-1.528c-.765-1.326-.662-2.445.788-3.281 1.482-.854 2.778-.479 3.929 1.517 1.267 2.199.996 3.747-1.39 5.122l.738 1.279zm-5.253-23.442l-.44-1.39-10.87 7.718.91 2.883 13.337.093-.444-1.408-5.214-.014-1.534-4.858 4.255-3.024zm-4.048 7.866l-6.347-.015-.125-.395 5.182-3.675 1.29 4.085zM.92 83.54l1.288 10.197 1.25-.158-.555-4.393 11.34-1.433-.183-1.446-11.34 1.432-.55-4.357-1.25.158zm-.096-7.91l-.11 1.472 12.654.954.29-3.841c.226-3.016-.454-4.999-3.578-5.234-3.14-.237-4.13 1.62-4.356 4.636l-.179 2.37-4.72-.357zm11.398.86l-5.42-.41.178-2.368c.168-2.226.674-3.434 2.99-3.259 2.297.173 2.598 1.441 2.43 3.667l-.178 2.37zM10.53 55.5c3.394 1.496 6.873.61 8.376-2.8 1.307-2.964.385-5.692-2.345-7.309l-.595 1.351c2.107 1.244 2.789 3.177 1.787 5.45-1.19 2.701-3.81 3.199-6.627 1.957-2.8-1.234-4.2-3.503-3.008-6.205 1.002-2.273 2.873-3.08 5.212-2.364l.596-1.35c-3.019-.918-5.654.242-6.961 3.206-1.503 3.41.19 6.575 3.566 8.064zm17.86-18.843l.871-1.17-12.62-4.298-1.805 2.425 7.73 10.87.881-1.185-3.04-4.237 3.042-4.086 4.942 1.681zm-8.746 1.321l-3.702-5.156.247-.332 6.013 2.051-2.558 3.437zm7.714-23.868l-.927.77c.84 1.01.885 1.769-.001 2.505-.886.737-1.637.565-2.477-.445l-.927.77c1.173 1.412 2.795 1.703 4.152.575 1.342-1.116 1.354-2.764.18-4.176zM40.41 25.333l-8.111-9.76-2.285 1.899 2.975 13.49-.319.265-.498-.966-7.168-8.624-1.122.932 8.112 9.759 2.284-1.899L31.29 16.95l.318-.264.499.966 7.168 8.624 1.135-.944zm6.787-18.411L38.04 11.59l.572 1.123 3.945-2.011 5.191 10.183 1.299-.662-5.19-10.183 3.912-1.995-.572-1.123zm16.379 4.339l1.193-.175c-.157-1.069.313-1.338.794-1.408 1.3-.191 2.685 1.061 4.394.81.998-.146 2.003-.985 1.739-2.784l-1.194.175c.157 1.069-.31 1.356-.791 1.426-1.282.189-2.685-1.061-4.394-.81-.98.144-2.005.967-1.741 2.766z" fill="#3E3E3E"/></svg>