<svg width="195" height="200" fill="none" xmlns="http://www.w3.org/2000/svg"><path d="M106.01 2.148l-4.732-.435-1.485 16.855 1.96.18.512-5.81 2.772.256c4.254.39 7.054-.485 7.444-4.908.387-4.398-2.217-5.746-6.471-6.138zm-.802 9.374l-2.796-.257.679-7.698 2.796.257c2.868.264 4.924.983 4.634 4.282-.295 3.347-2.445 3.68-5.313 3.416zm10.719.398c-1.401 4.741.33 9.217 5.101 10.688 4.724 1.456 8.59-1.296 9.99-6.037 1.394-4.718-.337-9.194-5.061-10.65-4.771-1.47-8.636 1.28-10.03 5.999zm1.881.58c1.142-3.867 3.843-6.149 7.673-4.968 3.807 1.173 4.799 4.593 3.657 8.46-1.149 3.89-3.827 6.178-7.634 5.004-3.831-1.18-4.845-4.607-3.696-8.496zm13.139 13.512l1.713.968 3.235-5.973 7.397 4.18-3.235 5.972 1.714.968 3.028-5.592c.423-.781.272-1.308-.564-1.78l-1.755-.992.274-.506c1.736.623 3.423.28 4.634-1.957 1.806-3.334.016-5.42-3.494-7.404l-4.89-2.763-8.057 14.879zm5.748-6.482l3.223-5.951 3.176 1.794c2.507 1.417 3.907 2.511 2.421 5.255-1.474 2.722-3.137 2.113-5.644.697l-3.176-1.795zm27.289 9.014l-10.511-8.794-1.051 1.31 4.529 3.79-9.534 11.889 1.491 1.247 9.533-11.89 4.492 3.758 1.051-1.31zm-9.089 15.022l1.263 1.51 5.115-4.47 5.493 5.813 1.283-1.122-5.492-5.812 5.079-4.437 5.855 6.993 1.265-1.105-7.118-8.502-12.743 11.132zm15.345 5.45c-4.277 2.479-6.116 6.928-3.692 11.292 2.401 4.322 7.083 4.992 11.36 2.513 4.257-2.467 6.095-6.916 3.695-11.238-2.424-4.364-7.106-5.034-11.363-2.567zm.956 1.72c3.488-2.021 7.007-1.814 8.953 1.69 1.935 3.482.292 6.653-3.196 8.675-3.509 2.034-7.017 1.847-8.951-1.635-1.946-3.504-.315-6.696 3.194-8.73zm.428 20.601l3.026 8.502 1.591-.541-2.87-8.023 14.654-4.988-.61-1.871-14.881 5.065c-.864.294-1.223.974-.91 1.856zm20.073 17.793l1.658-.274-1.489-9.411-1.658.274.593 3.745-13.379 2.209-.592-3.746-1.658.274 1.489 9.41 1.658-.273-.589-3.722 13.379-2.208.588 3.721zm-6.257 3.932c-4.943-.082-8.757 2.783-8.836 7.774-.079 4.944 3.642 7.934 8.586 8.016 4.919.081 8.733-2.784 8.811-7.727.08-4.992-3.641-7.982-8.561-8.063zm-.031 1.968c4.032.066 6.976 2.06 6.913 6.067-.064 3.983-3.07 5.854-7.101 5.787-4.056-.067-7.001-2.036-6.937-6.02.063-4.007 3.07-5.902 7.125-5.835zm-6.568 26.732l-.503 1.527c1.362.469 1.401 1.193 1.198 1.808-.549 1.664-2.86 2.544-3.582 4.732-.421 1.276-.025 2.986 2.268 3.775l.503-1.528c-1.362-.468-1.423-1.2-1.22-1.815.541-1.641 2.86-2.544 3.581-4.732.414-1.254.048-2.978-2.245-3.767zm-2.032 33.916l2.705-3.907-13.715-9.909-1.12 1.618 4.727 3.415-1.585 2.289c-2.432 3.512-3.062 6.402.537 9.003 3.58 2.586 6.019 1.003 8.451-2.509zm-7.64-5.49l1.599-2.309 6.264 4.526-1.599 2.308c-1.639 2.368-3.27 3.795-5.954 1.856-2.724-1.968-1.949-4.014-.31-6.381zm-5.543 9.419c-3.358-3.629-8.024-4.361-11.615-.893-3.557 3.434-3.104 8.233.254 11.862 3.341 3.611 8.007 4.343 11.564.909 3.591-3.468 3.138-8.267-.203-11.878zm-1.416 1.367c2.738 2.959 3.361 6.494.478 9.278-2.867 2.767-6.269 1.916-9.008-1.043-2.754-2.977-3.394-6.495-.528-9.262 2.883-2.784 6.303-1.95 9.058 1.027zm-18.12 4.847l-1.669 1.042 3.49 5.827-7.205 4.503-3.489-5.827-1.669 1.043 3.267 5.456c.457.762.98.888 1.794.379l1.709-1.068.296.494c-1.386 1.234-1.926 2.901-.619 5.084 1.948 3.253 4.607 2.695 8.026.558l4.763-2.976-8.694-14.515zm2.684 8.311l3.478 5.806-3.094 1.933c-2.442 1.526-4.064 2.228-5.667-.448-1.59-2.656-.253-3.832 2.19-5.358l3.093-1.933zm-21.304 19.845l12.771-4.971-.587-1.574-5.502 2.141-5.327-14.279-1.812.706 5.327 14.278-5.457 2.125.587 1.574zm-8.139-15.455l-1.934.363 1.202 6.685-7.77 1.946.302 1.677 7.77-1.946 1.193 6.638-8.963 1.681.297 1.654 10.898-2.045-2.995-16.653zm-12.424 10.983c.078-4.943-2.789-8.759-7.78-8.842-4.944-.082-7.932 3.637-8.01 8.58-.078 4.92 2.79 8.736 7.733 8.818 4.991.082 7.979-3.637 8.057-8.556zm-1.968-.033c-.064 4.032-2.055 6.975-6.063 6.909-3.983-.066-5.856-3.074-5.791-7.105.064-4.056 2.031-7 6.015-6.933 4.007.066 5.903 3.074 5.839 7.129zm-17.616-9.775l-8.886-1.575-.324 1.648 8.393 1.475-2.982 15.19 1.928.395 3.028-15.426c.176-.895-.235-1.543-1.157-1.707zm-25.169 8.546l-.58 1.576 8.896 3.414.58-1.577-3.54-1.358 4.68-12.727 3.54 1.359.58-1.577-8.895-3.414-.58 1.577 3.518 1.35-4.68 12.726-3.519-1.349zm-.142-7.32c2.474-4.281 1.851-9.055-2.424-11.632-4.234-2.553-8.627-.802-11.1 3.478-2.462 4.26-1.84 9.035 2.395 11.587 4.275 2.578 8.668.827 11.13-3.433zm-1.685-1.016c-2.018 3.491-5.171 5.064-8.604 2.995-3.412-2.057-3.567-5.625-1.55-9.116 2.03-3.512 5.163-5.098 8.575-3.041 3.432 2.07 3.608 5.65 1.579 9.162zM38.98 160.669l-1.054-1.215c-1.067.966-1.704.636-2.128.146-1.148-1.323-.762-3.808-2.272-5.548-.88-1.016-2.532-1.528-4.329.099l1.054 1.214c1.067-.966 1.721-.652 2.146-.162 1.132 1.305.762 3.808 2.272 5.549.864.997 2.514 1.543 4.31-.083zm-27.658-18.646l1.977 4.322 15.27-7.29-.82-1.79-5.262 2.513-1.159-2.532c-1.777-3.884-3.923-5.864-7.93-3.952-3.985 1.903-3.853 4.845-2.076 8.729zm8.48-4.075l1.169 2.554-6.974 3.329-1.169-2.553c-1.198-2.619-1.6-4.767 1.389-6.194 3.032-1.448 4.387.246 5.585 2.864zm-5.175-9.641c4.802-1.173 7.795-4.918 6.657-9.779-1.127-4.814-5.455-6.77-10.258-5.597-4.779 1.168-7.772 4.913-6.645 9.726 1.138 4.861 5.466 6.818 10.245 5.65zm-.45-1.916c-3.916.957-7.25-.23-8.164-4.132-.908-3.879 1.545-6.455 5.462-7.412 3.94-.962 7.269.201 8.177 4.08.914 3.902-1.534 6.501-5.474 7.464zm4.927-18.423l-.045-1.967-6.79.165-.198-8.494 6.79-.165-.046-1.967-6.358.154c-.887.022-1.262.415-1.24 1.374l.047 2.016-.576.014c-.354-1.816-1.513-3.108-4.056-3.047-3.79.092-4.667 2.682-4.573 6.713l.13 5.615 16.915-.411zm-8.515-1.762l-6.766.164-.085-3.647c-.067-2.879.157-4.637 3.276-4.712 3.095-.075 3.423 1.67 3.49 4.548l.085 3.647zM4.24 77.636L2.096 91.172l1.658.274.923-5.832 15.036 2.483.304-1.92L4.98 83.694l.916-5.784-1.658-.273zm17.402.394l.64-1.86-6.392-2.297 2.15-7.719-1.603-.576-2.15 7.719-6.347-2.28 2.97-8.624-1.582-.568-3.61 10.484 15.924 5.721zM18.52 61.737c4.252 2.524 8.94 1.904 11.41-2.435 2.445-4.297.653-8.765-3.598-11.29-4.23-2.512-8.918-1.892-11.364 2.405-2.469 4.339-.678 8.807 3.553 11.32zm.974-1.71c-3.466-2.06-5.064-5.269-3.081-8.752 1.97-3.462 5.48-3.611 8.946-1.553 3.487 2.072 5.096 5.26 3.126 8.722-1.983 3.483-5.503 3.653-8.99 1.582zm17.023-10.884l5.703-7.004-1.25-1.121-5.376 6.622L24.07 37.305l-1.283 1.492L34.49 49.292c.68.61 1.434.577 2.027-.149zm5.025-26.667l-1.06-1.304-7.264 6.167 1.06 1.303 2.892-2.454 8.558 10.518-2.89 2.454 1.06 1.303 7.263-6.166-1.06-1.304-2.873 2.44-8.558-10.519 2.872-2.439zm6.376 3.5c2.41 4.317 6.777 6.133 11.09 3.62 4.272-2.49 4.965-7.253 2.554-11.57-2.398-4.295-6.765-6.111-11.037-3.622-4.313 2.513-5.006 7.277-2.607 11.572zm1.7-.99c-1.966-3.52-1.737-7.098 1.726-9.116 3.442-2.005 6.552-.373 8.518 3.147 1.978 3.541 1.77 7.106-1.673 9.112-3.463 2.018-6.593.398-8.571-3.143zm25.974-7.753l1.574-.33c-.284-1.412.322-1.809.956-1.942 1.715-.36 3.644 1.197 5.898.724 1.316-.276 2.592-1.476 2.114-3.852l-1.573.33c.283 1.412-.318 1.832-.952 1.965-1.69.355-3.643-1.197-5.898-.724-1.292.271-2.596 1.452-2.119 3.829z" fill="#B12B00"/></svg>