<svg xmlns="http://www.w3.org/2000/svg" width="199" height="198" fill="none"><path d="M108.5 1.85l-4.723-.525-1.869 16.817 1.956.217.644-5.796 2.767.307c4.246.472 7.066-.35 7.556-4.762.488-4.39-2.085-5.786-6.331-6.258zm-1.015 9.353l-2.791-.31.853-7.68 2.791.31c2.862.318 4.903 1.076 4.537 4.367-.371 3.34-2.528 3.631-5.39 3.313zm14.447.853c-1.725 4.633-.296 9.186 4.382 10.928 4.634 1.725 8.692-.785 10.418-5.418 1.716-4.61.287-9.163-4.346-10.888-4.678-1.742-8.737.767-10.454 5.378zm1.844.687c1.407-3.779 4.268-5.89 8.024-4.491 3.733 1.39 4.494 4.849 3.087 8.628-1.415 3.8-4.253 5.92-7.986 4.53-3.756-1.4-4.54-4.866-3.125-8.667zm29.717 20.125c2.037-2.88-.571-5.843-2.679-8.598-1.774-2.313-2.615-3.7-1.589-5.15 1.081-1.53 2.805-1.015 4.705.329 2.117 1.497 3.14 3.749 1.477 6.1l1.606 1.137c1.594-2.254 1.963-5.726-2.112-8.609-3.41-2.411-5.814-2.171-7.31-.055-1.733 2.45-.28 4.593 1.861 7.343 1.737 2.199 3.862 4.348 2.379 6.445-1.178 1.665-2.932 1.277-5.283-.386-2.9-2.051-4.131-4.01-1.817-7.282l-1.606-1.136c-2.287 3.233-2.367 6.38 2.453 9.79 4.075 2.882 6.46 2.13 7.915.072zm22.037 4.662l-9.198-10.159-1.245 1.128 3.962 4.376-11.297 10.229 1.305 1.441 11.297-10.229 3.93 4.341 1.246-1.127zm-9.118 15.777l5.269 9.069 1.453-.844-4.281-7.367 5.146-2.99 3.678 6.329 1.453-.844-3.678-6.33 5.125-2.978 4.281 7.367 1.453-.844-5.27-9.068-14.629 8.5zm7.927 14.287l.594 1.877 6.476-2.047 2.56 8.1-6.476 2.048.593 1.876 6.064-1.916c.847-.268 1.098-.75.808-1.665l-.607-1.923.549-.173c.847 1.645 2.32 2.564 4.746 1.797 3.616-1.143 3.734-3.873 2.519-7.718l-1.692-5.355-16.134 5.1zm8.672-.676l6.453-2.04 1.099 3.478c.868 2.746 1.145 4.497-1.83 5.437-2.952.933-3.755-.65-4.623-3.397l-1.099-3.478zm1.872 32.142c3.519-.247 4.161-4.141 4.959-7.517.668-2.838 1.21-4.368 2.982-4.492 1.867-.13 2.561 1.53 2.723 3.852.181 2.585-.914 4.803-3.787 5.004l.137 1.964c2.753-.193 5.675-2.106 5.326-7.086-.291-4.165-1.999-5.874-4.584-5.693-2.993.21-3.734 2.69-4.506 6.09-.603 2.736-.922 5.742-3.483 5.92-2.035.143-2.845-1.46-3.046-4.333-.248-3.543.488-5.736 4.487-6.016l-.138-1.963c-3.95.276-6.437 2.207-6.025 8.096.348 4.98 2.441 6.35 4.955 6.173zm-1.64 17.902l-.465 1.539c1.379.416 1.437 1.136 1.25 1.756-.507 1.677-2.803 2.639-3.469 4.844-.389 1.287.054 2.975 2.374 3.676l.465-1.539c-1.378-.417-1.46-1.143-1.272-1.764.499-1.654 2.802-2.638 3.469-4.844.381-1.263-.031-2.967-2.352-3.668zm-4.211 38.788l2.852-3.801-13.536-10.152-1.181 1.574 4.665 3.499-1.67 2.228c-2.563 3.417-3.288 6.264.264 8.928 3.533 2.649 6.043 1.142 8.606-2.276zm-7.54-5.625l1.684-2.247 6.183 4.637-1.685 2.247c-1.728 2.304-3.418 3.676-6.067 1.689-2.688-2.016-1.843-4.022-.115-6.326zm-8.048 11.826c-3.144-3.815-7.8-4.861-11.653-1.687-3.815 3.145-3.679 7.914-.534 11.73 3.128 3.797 7.784 4.843 11.6 1.699 3.852-3.175 3.716-7.945.587-11.742zm-1.519 1.252c2.564 3.111 2.956 6.644-.137 9.193-3.074 2.534-6.449 1.458-9.013-1.654-2.579-3.13-2.99-6.647.085-9.181 3.093-2.549 6.486-1.489 9.065 1.642zM129.66 178.84c1.478 3.204 5.347 2.422 8.787 1.972 2.89-.383 4.512-.418 5.256 1.195.785 1.699-.521 2.936-2.635 3.912-2.353 1.086-4.815.848-6.022-1.767l-1.787.825c1.156 2.506 3.981 4.559 8.513 2.467 3.792-1.75 4.784-3.952 3.698-6.306-1.257-2.723-3.84-2.536-7.291-2.053-2.773.407-5.696 1.175-6.772-1.157-.855-1.852.357-3.178 2.972-4.385 3.225-1.488 5.536-1.577 7.216 2.062l1.787-.825c-1.66-3.595-4.347-5.236-9.707-2.762-4.533 2.092-5.071 4.534-4.015 6.822zm-15.067 16.869l13.4-2.872-.352-1.642-5.773 1.237-3.194-14.902-1.9.407 3.193 14.902-5.726 1.227.352 1.643zm-9.334-15.909l-10.487-.17-.027 1.68 8.519.138-.097 5.951-7.319-.118-.027 1.679 7.319.119-.096 5.927-8.52-.138-.027 1.68 10.487.17.275-16.918zm-16.162-.31l-1.92-.431-1.487 6.627-8.29-1.861 1.488-6.627-1.92-.431-1.394 6.206c-.194.866.096 1.325 1.033 1.535l1.967.442-.126.562c-1.848-.095-3.383.716-3.94 3.198-.831 3.7 1.47 5.176 5.404 6.059l5.48 1.23 3.706-16.509zm-3.775 7.835l-1.483 6.604-3.56-.799c-2.81-.631-4.461-1.272-3.778-4.316.679-3.021 2.451-2.919 5.261-2.288l3.56.799zm-28.699-14.754c-1.566 3.161 1.47 5.683 3.979 8.078 2.11 2.011 3.156 3.252 2.368 4.843-.831 1.678-2.614 1.437-4.7.404-2.322-1.151-3.682-3.218-2.404-5.798l-1.763-.874c-1.225 2.473-1.052 5.96 3.421 8.177 3.742 1.854 6.08 1.245 7.23-1.078 1.332-2.688-.434-4.581-2.976-6.966-2.057-1.903-4.49-3.697-3.349-5.998.906-1.828 2.699-1.717 5.28-.438 3.182 1.577 4.702 3.321 2.922 6.913l1.763.873c1.759-3.548 1.35-6.67-3.94-9.291-4.473-2.217-6.712-1.103-7.83 1.155zm-14.55-10.452l-1.096-1.177c-1.054.982-1.705.67-2.147.196-1.194-1.282-.869-3.75-2.44-5.436-.915-.983-2.597-1.451-4.37.202l1.095 1.176c1.054-.981 1.723-.686 2.165-.212 1.177 1.265.868 3.75 2.439 5.436.9.966 2.58 1.467 4.354-.185zm-31.491-23.036l1.854 4.375 15.578-6.604-.768-1.812-5.37 2.277-1.086-2.564c-1.667-3.933-3.764-5.989-7.852-4.257-4.066 1.724-4.024 4.652-2.356 8.585zm8.652-3.694l1.096 2.585-7.115 3.016-1.096-2.585c-1.124-2.651-1.462-4.802 1.587-6.095 3.094-1.311 4.404.427 5.528 3.079zm-6.204-12.935c4.88-.788 8.134-4.279 7.338-9.207-.788-4.881-4.974-7.171-9.855-6.383-4.857.784-8.11 4.275-7.322 9.156.795 4.928 4.982 7.218 9.839 6.434zm-.314-1.943c-3.98.643-7.228-.802-7.867-4.759-.635-3.933 1.997-6.303 5.978-6.945 4.004-.647 7.248.775 7.883 4.708.639 3.956-1.99 6.35-5.994 6.996zm2.877-35.75c-3.511-.343-4.793 3.39-6.143 6.585-1.131 2.687-1.92 4.105-3.688 3.931-1.863-.182-2.27-1.934-2.044-4.25.252-2.58 1.703-4.585 4.569-4.304l.192-1.959c-2.747-.269-5.947 1.13-6.433 6.099-.407 4.156.992 6.125 3.572 6.378 2.985.292 4.13-2.031 5.457-5.254 1.05-2.598 1.866-5.508 4.422-5.258 2.03.199 2.561 1.915 2.28 4.781-.345 3.535-1.437 5.575-5.426 5.184l-.192 1.959c3.941.385 6.716-1.103 7.29-6.98.487-4.968-1.348-6.666-3.856-6.912zM8.537 63.318L4.285 76.346l1.597.52 1.832-5.612 14.488 4.728.603-1.849-14.488-4.727 1.817-5.567-1.597-.521zm18.348.091l5.304-9.048-1.45-.85-4.308 7.35-5.135-3.01 3.702-6.315-1.45-.85-3.701 6.316-5.114-2.998 4.308-7.35-1.449-.85-5.304 9.048 14.597 8.557zm8.53-13.921l1.34-1.442-4.977-4.623 5.782-6.225 4.977 4.623 1.34-1.442-4.66-4.328c-.651-.605-1.194-.585-1.847.118l-1.372 1.478-.422-.392c1.012-1.55 1.084-3.284-.78-5.015-2.778-2.581-5.211-1.337-7.955 1.617l-3.823 4.115 12.397 11.516zm-4.868-7.208l-4.958-4.607 2.482-2.672c1.96-2.11 3.346-3.214 5.632-1.09 2.269 2.106 1.287 3.586-.673 5.696l-2.483 2.673zM57.7 24.937c-1.95-2.94-5.654-1.58-8.985-.61-2.798.817-4.396 1.099-5.377-.382-1.034-1.56.068-2.982 2.009-4.267 2.16-1.432 4.63-1.572 6.221.829l1.64-1.087c-1.524-2.3-4.628-3.9-8.79-1.143-3.48 2.307-4.126 4.635-2.694 6.796 1.657 2.5 4.181 1.921 7.519.919 2.678-.825 5.45-2.028 6.87.112 1.126 1.7.13 3.196-2.27 4.787-2.962 1.962-5.233 2.401-7.447-.94l-1.64 1.087c2.187 3.302 5.093 4.514 10.014 1.253 4.162-2.757 4.322-5.253 2.93-7.354zm16.261-7.503l1.568-.356c-.32-1.404.277-1.811.909-1.955 1.708-.389 3.679 1.132 5.925.62 1.31-.297 2.56-1.517 2.022-3.88l-1.568.356c.32 1.405-.272 1.834-.904 1.978-1.685.384-3.679-1.132-5.925-.62-1.288.292-2.565 1.494-2.027 3.857z" fill="#B12B00"/></svg>