<svg width="341" height="341" viewBox="0 0 341 341" fill="none" xmlns="http://www.w3.org/2000/svg">
<path d="M161.133 54.5996L173.881 127.205L223.859 73.0176L195.329 140.99L266.67 122.424L205.921 164.181L275.973 187.132L202.292 189.418L248.816 246.599L185.596 208.686L193.82 281.942L161.133 215.869L128.446 281.942L136.67 208.686L73.4501 246.599L119.974 189.418L46.2927 187.132L116.345 164.181L55.5964 122.424L126.937 140.99L98.4072 73.0176L148.385 127.205L161.133 54.5996Z" fill="#B12B00"/>
<path d="M188.414 107.093L188.588 108.089L189.274 107.346L260.573 30.0411L219.872 127.01L219.481 127.942L220.459 127.688L322.234 101.202L235.569 160.773L234.736 161.346L235.696 161.661L335.634 194.403L230.52 197.663L229.51 197.694L230.148 198.478L296.519 280.053L206.329 225.967L205.462 225.447L205.575 226.451L217.307 330.959L170.676 236.699L170.227 235.793L169.779 236.699L123.148 330.959L134.88 226.451L134.993 225.447L134.126 225.967L43.9359 280.053L110.307 198.478L110.945 197.694L109.935 197.663L4.82072 194.403L104.758 161.661L105.719 161.346L104.886 160.773L18.221 101.202L119.996 127.688L120.974 127.942L120.583 127.01L79.8822 30.0411L151.181 107.346L151.866 108.089L152.041 107.093L170.227 3.51336L188.414 107.093Z" stroke="#3E3E3E"/>
</svg>
