<svg width="341" height="341" fill="none" xmlns="http://www.w3.org/2000/svg"><path d="M161.133 54.6l12.748 72.605 49.978-54.187-28.53 67.972 71.341-18.566-60.749 41.757 70.052 22.951-73.681 2.286 46.524 57.181-63.22-37.913 8.224 73.256-32.687-66.073-32.687 66.073 8.224-73.256-63.22 37.913 46.524-57.181-73.681-2.286 70.052-22.951-60.749-41.757 71.341 18.566-28.53-67.972 49.978 54.187L161.133 54.6z" fill="#B12B00"/><path d="M188.414 107.093l.174.996.686-.743 71.299-77.305-40.701 96.969-.391.932.978-.254 101.775-26.486-86.665 59.571-.833.573.96.315 99.938 32.742-105.114 3.26-1.01.031.638.784 66.371 81.575-90.19-54.086-.867-.52.113 1.004 11.732 104.508-46.631-94.26-.449-.906-.448.906-46.631 94.26 11.732-104.508.113-1.004-.867.52-90.19 54.086 66.371-81.575.638-.784-1.01-.031-105.114-3.26 99.937-32.742.961-.315-.833-.573-86.665-59.571 101.775 26.486.978.254-.391-.932-40.7-96.969 71.298 77.305.685.743.175-.996 18.186-103.58 18.187 103.58z" stroke="#3E3E3E"/></svg>