<svg width="195" height="71" fill="none" xmlns="http://www.w3.org/2000/svg"><path d="M193.771 35.962c0 4.63-2.599 9.107-7.447 13.243-4.846 4.134-11.888 7.88-20.633 11.035-17.487 6.31-41.676 10.222-68.42 10.222-26.743 0-50.934-3.912-68.42-10.222-8.745-3.155-15.787-6.9-20.633-11.035C3.37 45.07.771 40.592.771 35.962c0-4.63 2.6-9.107 7.447-13.243 4.846-4.134 11.888-7.88 20.633-11.035 17.486-6.31 41.677-10.222 68.42-10.222 26.744 0 50.933 3.912 68.42 10.222 8.745 3.155 15.787 6.9 20.633 11.035 4.848 4.136 7.447 8.613 7.447 13.243z" stroke="#3E3E3E"/><path d="M39.731 41.462h1.64v-12.46l-.26-1.18h.46l7.02 13.64h3.3v-14.1h-1.62v12.46l.26 1.18h-.46l-7.04-13.64h-3.3v14.1zm14.863 0h8.74v-1.4h-7.1v-4.96h6.1v-1.4h-6.1v-4.94h7.1v-1.4h-8.74v14.1zm22.354-14.1h-2.36l-7.28 6v-6h-1.64v14.1h1.64v-6l7.28 6h2.36l-8.6-7.06 8.6-7.04zm1.904 14.1h1.64v-5.66h7.08v5.66h1.64v-5.3c0-.74-.32-1.06-1.12-1.06h-1.68v-.48c1.52-.26 2.62-1.2 2.62-3.32 0-3.16-2.14-3.94-5.5-3.94h-4.68v14.1zm1.64-7.06v-5.64h3.04c2.4 0 3.86.22 3.86 2.82 0 2.58-1.46 2.82-3.86 2.82h-3.04zm21.642 7.06h1.62l-4.54-14.1h-3.36l-4.56 14.1h1.64l1.76-5.52h5.66l1.78 5.52zm-6.98-6.92l2.14-6.72h.46l2.16 6.72h-4.76zm21.148 3.36c0-2.94-3.2-3.7-5.96-4.56-2.32-.72-3.56-1.26-3.56-2.74 0-1.56 1.42-2.04 3.36-2.04 2.16 0 3.94 1.04 3.94 3.44h1.64c0-2.3-1.42-4.84-5.58-4.84-3.48 0-5 1.32-5 3.48 0 2.5 2.02 3.26 4.8 4.1 2.24.66 4.72 1.1 4.72 3.24 0 1.7-1.38 2.28-3.78 2.28-2.96 0-4.74-.74-4.74-4.08h-1.64c0 3.3 1.46 5.48 6.38 5.48 4.16 0 5.42-1.66 5.42-3.76zm1.51-3.5c0 4.12 2.44 7.26 6.6 7.26 4.12 0 6.56-3.14 6.56-7.26 0-4.1-2.44-7.24-6.56-7.24-4.16 0-6.6 3.14-6.6 7.24zm1.64 0c0-3.36 1.62-5.84 4.96-5.84 3.32 0 4.92 2.48 4.92 5.84 0 3.38-1.6 5.86-4.92 5.86-3.34 0-4.96-2.48-4.96-5.86zm12.448-7.04l4.56 14.1h3.36l4.54-14.1h-1.62l-4.38 13.64h-.46l-4.36-13.64h-1.64zm22.051 14.1h1.62l-4.54-14.1h-3.36l-4.56 14.1h1.64l1.76-5.52h5.66l1.78 5.52zm-6.98-6.92l2.14-6.72h.46l2.16 6.72h-4.76z" fill="#3E3E3E"/></svg>