<svg width="285" height="187" fill="none" xmlns="http://www.w3.org/2000/svg"><path d="M284.41 36.131c0 4.645-3.761 9.212-10.929 13.467-7.135 4.236-17.493 8.068-30.337 11.293-25.68 6.448-61.182 10.442-100.416 10.442-39.233 0-74.736-3.994-100.415-10.442-12.844-3.225-23.202-7.057-30.338-11.293-7.168-4.255-10.928-8.822-10.928-13.467 0-4.644 3.76-9.21 10.928-13.466 7.136-4.236 17.494-8.069 30.338-11.294C67.993 4.923 103.495.93 142.728.93c39.234 0 74.736 3.993 100.416 10.441 12.844 3.225 23.202 7.058 30.337 11.294 7.168 4.255 10.929 8.822 10.929 13.466z" stroke="#3E3E3E"/><path d="M284.41 71.833c0 4.645-3.761 9.211-10.929 13.467-7.135 4.236-17.493 8.068-30.337 11.293-25.68 6.448-61.182 10.442-100.416 10.442-39.233 0-74.736-3.994-100.415-10.442C29.469 93.368 19.11 89.536 11.975 85.3 4.807 81.044 1.047 76.478 1.047 71.833c0-4.644 3.76-9.211 10.928-13.467 7.136-4.236 17.494-8.068 30.338-11.293 25.68-6.448 61.182-10.442 100.415-10.442 39.234 0 74.736 3.994 100.416 10.442 12.844 3.225 23.202 7.057 30.337 11.293 7.168 4.256 10.929 8.823 10.929 13.467z" stroke="#3E3E3E"/><path d="M284.41 107.535c0 4.644-3.761 9.211-10.929 13.466-7.135 4.236-17.493 8.069-30.337 11.294-25.68 6.448-61.182 10.441-100.416 10.441-39.233 0-74.736-3.993-100.415-10.441-12.844-3.225-23.202-7.058-30.338-11.294-7.168-4.255-10.928-8.822-10.928-13.466 0-4.645 3.76-9.212 10.928-13.467C19.111 89.832 29.47 86 42.313 82.775c25.68-6.448 61.182-10.442 100.415-10.442 39.234 0 74.736 3.994 100.416 10.442 12.844 3.225 23.202 7.057 30.337 11.293 7.168 4.255 10.929 8.822 10.929 13.467z" stroke="#B12B00"/><path d="M284.41 150.712c0 4.644-3.761 9.211-10.929 13.467-7.135 4.236-17.493 8.068-30.337 11.293-25.68 6.448-61.182 10.442-100.416 10.442-39.233 0-74.736-3.994-100.415-10.442-12.844-3.225-23.202-7.057-30.338-11.293-7.168-4.256-10.928-8.823-10.928-13.467 0-4.645 3.76-9.211 10.928-13.467 7.136-4.236 17.494-8.068 30.338-11.293 25.68-6.448 61.182-10.442 100.415-10.442 39.234 0 74.736 3.994 100.416 10.442 12.844 3.225 23.202 7.057 30.337 11.293 7.168 4.256 10.929 8.822 10.929 13.467z" stroke="#3E3E3E"/></svg>